<?xml version="1.0" standalone="no"?>
<!DOCTYPE svg PUBLIC "-//W3C//DTD SVG 20010904//EN"
 "http://www.w3.org/TR/2001/REC-SVG-20010904/DTD/svg10.dtd">
<svg version="1.0" xmlns="http://www.w3.org/2000/svg"
 width="1600.000000pt" height="1700.000000pt" viewBox="0 0 1600.000000 1700.000000"
 preserveAspectRatio="xMidYMid meet">

<g transform="translate(0.000000,1700.000000) scale(0.100000,-0.100000)"
fill="#000000" stroke="none">
<path d="M7570 14950 c-734 -58 -1473 -267 -2110 -596 -777 -403 -1426 -954
-1936 -1644 -208 -281 -445 -673 -495 -817 -10 -29 -28 -68 -41 -86 -31 -43
-68 -123 -143 -307 -206 -504 -325 -997 -387 -1590 -17 -168 -17 -832 0 -1000
50 -475 157 -978 278 -1298 29 -77 28 -69 6 -75 -13 -4 -11 -5 6 -6 12 0 22
-6 22 -12 0 -20 112 -294 184 -450 69 -149 222 -434 294 -549 319 -504 605
-848 1030 -1236 169 -155 430 -362 505 -400 43 -23 84 -4 96 45 5 20 16 241
25 491 21 579 35 947 41 1080 12 279 25 596 31 803 4 125 10 227 13 227 3 0 5
26 3 57 -1 32 8 337 22 678 27 679 28 653 -31 676 -15 6 -118 10 -237 9 -116
-1 -221 -1 -234 -1 -13 1 -34 12 -47 26 -24 24 -25 27 -25 185 0 91 4 170 10
180 22 41 46 45 314 50 l259 5 18 25 c17 22 20 69 35 432 9 225 13 419 10 433
-11 42 -42 52 -221 70 -424 41 -801 99 -856 131 -49 29 -70 66 -123 220 -27
77 -51 142 -55 146 -3 4 -68 19 -143 34 -110 21 -142 31 -168 52 -25 22 -55
85 -164 352 -73 179 -132 326 -131 328 1 1 67 -13 146 -32 683 -165 1600 -261
3044 -318 440 -18 2697 -18 3150 0 1430 55 2418 160 3065 323 63 16 118 29
122 29 4 0 -11 -44 -33 -97 -22 -54 -65 -156 -94 -228 -29 -71 -72 -175 -94
-230 -56 -138 -67 -146 -239 -179 -75 -15 -140 -30 -143 -34 -4 -4 -28 -68
-54 -142 -56 -161 -81 -204 -138 -230 -65 -30 -449 -87 -842 -126 -179 -17
-210 -27 -221 -69 -3 -14 1 -211 10 -437 15 -398 17 -412 38 -435 21 -23 23
-23 265 -23 268 0 304 -6 323 -55 6 -15 10 -91 10 -171 0 -152 -9 -194 -47
-208 -10 -4 -120 -7 -245 -6 -241 1 -274 -5 -297 -49 -9 -16 10 -615 44 -1426
11 -258 45 -1124 70 -1810 14 -385 30 -716 35 -736 13 -46 55 -68 92 -48 29
15 233 167 313 232 245 201 708 674 825 843 8 12 44 58 80 102 91 112 192 254
246 342 24 41 63 104 85 140 44 69 81 135 166 295 277 519 480 1140 572 1745
54 357 75 835 52 1180 -62 925 -327 1761 -809 2555 -117 192 -365 543 -450
635 -28 30 -88 98 -133 150 -188 217 -503 510 -764 711 -107 83 -337 246 -402
285 -211 128 -369 216 -518 290 -569 284 -1176 463 -1852 545 -135 16 -242 21
-548 24 -209 2 -427 0 -485 -5z"/>
<path d="M5807 10263 c-15 -10 -29 -25 -31 -33 -3 -8 -8 -190 -12 -403 l-7
-388 23 -24 23 -25 949 0 949 0 24 25 25 24 0 366 0 367 -29 29 -29 29 -264 0
c-370 0 -1128 23 -1503 45 -75 4 -95 2 -118 -12z"/>
<path d="M9580 10255 c-179 -7 -543 -18 -810 -24 -441 -11 -487 -14 -510 -30
l-25 -18 -3 -391 -2 -390 82 -7 c46 -3 485 -5 977 -3 l894 3 20 26 c19 26 19
37 11 422 -9 379 -10 397 -29 411 -24 19 -133 19 -605 1z"/>
<path d="M5775 8928 l-25 -23 -10 -565 c-5 -311 -12 -731 -15 -935 -2 -203 -9
-572 -14 -820 -5 -247 -15 -808 -22 -1245 -14 -893 -16 -857 58 -955 49 -63
101 -95 249 -151 908 -345 1847 -448 2819 -308 269 38 665 131 890 209 112 38
224 79 260 96 23 9 71 29 109 43 91 34 138 74 183 154 l38 67 -2 395 c-2 338
-18 1428 -38 2545 -17 925 -25 1375 -25 1418 0 39 -5 53 -26 72 l-27 25 -2188
0 -2188 0 -26 -22z"/>
</g>
</svg>
